<svg width="24" height="24" viewBox="0 0 24 24" fill="none" xmlns="http://www.w3.org/2000/svg">
<path d="M9 3V7.5H15V3H9ZM7.5 9H3V15H7.5V9ZM9 15V9H15V15H9ZM7.5 16.5H3V17.25C3 18.2446 3.39509 19.1984 4.09835 19.9016C4.80161 20.6049 5.75544 21 6.75 21H7.5V16.5ZM9 21H15V16.5H9V21ZM16.5 21V16.5H21V17.25C21 18.2446 20.6049 19.1984 19.9016 19.9016C19.1984 20.6049 18.2446 21 17.25 21H16.5ZM21 9V15H16.5V9H21ZM21 7.5V6.75C21 5.75544 20.6049 4.80161 19.9016 4.09835C19.1984 3.39509 18.2446 3 17.25 3H16.5V7.5H21Z" fill="#C1436D"/>
</svg>
